<?xml version="1.0" encoding="UTF-8"?>
<svg xmlns="http://www.w3.org/2000/svg" xmlns:xlink="http://www.w3.org/1999/xlink" width="15pt" height="15pt" viewBox="0 0 459 459" version="1.1">
<g id="surface1">
<path style=" stroke:none;fill-rule:nonzero;fill:red;fill-opacity:1;" d="M 427.582031 375.191406 C 378.804688 353.164062 376.949219 258.609375 376.910156 256.222656 L 376.910156 192.789062 C 376.910156 131.738281 339.605469 79.242188 286.589844 56.886719 C 286.476562 25.5 260.914062 0 229.5 0 C 198.089844 0 172.523438 25.5 172.410156 56.886719 C 119.398438 79.238281 82.089844 131.738281 82.089844 192.789062 L 82.089844 256.222656 C 82.058594 258.609375 80.199219 353.160156 31.421875 375.191406 C 25.863281 377.699219 22.808594 383.75 24.09375 389.710938 C 25.378906 395.671875 30.648438 399.929688 36.746094 399.929688 L 160.40625 399.929688 C 162.941406 413.875 169.535156 426.847656 179.621094 437.355469 C 193.015625 451.3125 210.730469 459 229.5 459 C 248.269531 459 265.980469 451.3125 279.375 437.355469 C 289.460938 426.847656 296.054688 413.875 298.589844 399.929688 L 422.25 399.929688 C 428.347656 399.929688 433.621094 395.671875 434.902344 389.710938 C 436.191406 383.75 433.136719 377.699219 427.582031 375.191406 Z M 363.324219 329.894531 C 368.453125 345.441406 375.714844 361.054688 386.011719 374.042969 L 72.988281 374.042969 C 83.285156 361.054688 90.546875 345.441406 95.671875 329.894531 Z M 229.5 25.886719 C 243.710938 25.886719 255.722656 35.433594 259.484375 48.449219 C 249.796875 46.4375 239.769531 45.378906 229.5 45.378906 C 219.230469 45.378906 209.203125 46.4375 199.519531 48.449219 C 203.28125 35.433594 215.292969 25.886719 229.5 25.886719 Z M 107.976562 256.300781 L 107.976562 192.789062 C 107.976562 125.78125 162.492188 71.265625 229.5 71.265625 C 296.511719 71.265625 351.023438 125.78125 351.023438 192.789062 L 351.023438 256.40625 C 351.042969 258.355469 351.34375 278.816406 356.5 304.007812 L 102.496094 304.007812 C 107.65625 278.792969 107.960938 258.296875 107.976562 256.300781 Z M 229.5 433.113281 C 209.746094 433.113281 192.503906 418.871094 186.96875 399.929688 L 272.03125 399.929688 C 266.496094 418.871094 249.257812 433.113281 229.5 433.113281 Z M 229.5 433.113281 "/>
<path style=" stroke:none;fill-rule:nonzero;fill:white;fill-opacity:1;" d="M 229.5 89.425781 C 173.8125 89.425781 128.507812 134.730469 128.507812 190.417969 C 128.507812 197.566406 134.304688 203.359375 141.453125 203.359375 C 148.601562 203.359375 154.394531 197.566406 154.394531 190.417969 C 154.394531 149.003906 188.085938 115.3125 229.5 115.3125 C 236.648438 115.3125 242.445312 109.515625 242.445312 102.371094 C 242.445312 95.21875 236.648438 89.425781 229.5 89.425781 Z M 229.5 89.425781 "/>
</g>
</svg>
